<svg xmlns="http://www.w3.org/2000/svg" fill="none" viewBox="0 0 24 24" id="Mantine--Streamline-Svg-Logos" height="24" width="24">
  <desc>
    Mantine Streamline Icon: https://streamlinehq.com
  </desc>
  <path fill="#339af0" d="M6.3671 12.000025c0 -1.697925 -1.36935 -3.074375 -3.0585 -3.074375C1.619355 8.92565 0.25 10.3021 0.25 12.000025c0 1.697875 1.369355 3.07435 3.05855 3.07435 1.6892 0 3.05855 -1.376475 3.05855 -3.07435Z" stroke-width="0.25"></path>
  <path fill="#ffffff" d="M2.892175 10.457525c0.061075 -0.00905 0.123225 0.0066 0.1727 0.0435 0.10135 0.075575 0.19485 0.1611 0.2791 0.2553l0.020875 0.023725h0.659725c0.128675 0 0.23285 0.104525 0.23285 0.233625 0 0.12625 -0.099775 0.228975 -0.224325 0.2335l-0.008525 0.00015h-0.3644c0.1018 0.234375 0.154075 0.487275 0.153525 0.742825 0.0005 0.2464 -0.0481 0.490325 -0.14285 0.717575l-0.010725 0.025175h0.364225c0.1287 0 0.2329 0.10455 0.2329 0.23365 0 0.126225 -0.099825 0.229 -0.224375 0.2335l-0.008525 0.00015h-0.659875c-0.08955 0.1035 -0.190075 0.196975 -0.299775 0.278775 -0.04955 0.03695 -0.1118 0.0526 -0.172925 0.0435 -0.06115 -0.009075 -0.116125 -0.042175 -0.152775 -0.09195 -0.018175 -0.024625 -0.03135 -0.05265 -0.038775 -0.08245 -0.01505 -0.06015 -0.005625 -0.123825 0.026175 -0.177025 0.015675 -0.026275 0.0364 -0.049175 0.06095 -0.067375 0.35625 -0.265425 0.560775 -0.671225 0.560775 -1.113575 0 -0.442325 -0.204525 -0.84815 -0.560775 -1.11355 -0.0246 -0.0182 -0.045325 -0.0411 -0.061025 -0.067375 -0.046625 -0.078325 -0.04365 -0.17625 0.00685 -0.251425l0.005825 -0.00825c0.037025 -0.0497 0.092025 -0.082775 0.153175 -0.091975Zm-0.041925 1.132875c0.042475 0.018125 0.0809 0.044575 0.112975 0.077825 0.032175 0.033375 0.0574 0.07285 0.0742 0.116075 0.016825 0.04335 0.0249 0.0896 0.02375 0.1361 -0.002075 0.090825 -0.03935 0.177325 -0.103925 0.241225 -0.06415 0.063475 -0.150725 0.099125 -0.240975 0.099225 -0.09025 -0.000075 -0.176875 -0.035725 -0.2410325 -0.099225 -0.0645775 -0.0639 -0.101835 -0.1504 -0.103925 -0.241225 -0.0011125 -0.0465 0.00699 -0.09275 0.02384 -0.1361 0.0167825 -0.043225 0.0420075 -0.0827 0.0742 -0.116075 0.0320675 -0.03325 0.0704675 -0.0597 0.1129425 -0.077825 0.0856 -0.036475 0.18235 -0.036475 0.26795 0Z" stroke-width="0.25"></path>
  <path fill="#000000" d="M11.25485 13.702925c0.07485 0 0.1442 -0.016375 0.20815 -0.049125 0.06395 -0.032725 0.0959 -0.0803 0.0959 -0.14265V10.587675c0 -0.112275 -0.0312 -0.191 -0.09355 -0.236225 -0.062375 -0.045225 -0.132525 -0.067825 -0.2105 -0.067825 -0.0717 0 -0.1341 0.007825 -0.1871 0.0234 -0.053 0.015575 -0.100575 0.046775 -0.142675 0.09355s-0.0912 0.115375 -0.147325 0.2058l-0.57535 1.047775 -0.57065 -1.047775c-0.049925 -0.090425 -0.09745 -0.159025 -0.142675 -0.2058 -0.045225 -0.046775 -0.09355 -0.077975 -0.145 -0.09355 -0.05145 -0.015575 -0.1146 -0.0234 -0.18945 -0.0234 -0.07485 0 -0.1442 0.02265 -0.20815 0.067825 -0.06395 0.045225 -0.0959 0.12395 -0.0959 0.236225v2.923475c0 0.06235 0.03195 0.109925 0.0959 0.14265 0.06395 0.03275 0.1333 0.049125 0.20815 0.049125 0.077975 0 0.14815 -0.016375 0.2105 -0.049125 0.06235 -0.032725 0.09355 -0.0803 0.09355 -0.14265v-2.048775l0.5379 1.01035c0.028075 0.046775 0.060025 0.078725 0.0959 0.0959 0.03585 0.01715 0.070925 0.025725 0.10525 0.025725 0.037425 0 0.07485 -0.00935 0.11225 -0.028075 0.037425 -0.0187 0.070175 -0.0499 0.098225 -0.09355l0.5426 -0.972925v2.01135c0 0.06235 0.03195 0.109925 0.0959 0.14265 0.063925 0.03275 0.1333 0.049125 0.20815 0.049125Zm1.2967 0.0421c0.162125 0 0.300125 -0.037425 0.413975 -0.112275 0.1138 -0.074825 0.212825 -0.160575 0.297025 -0.25725v0.13565c0 0.053 0.025725 0.098225 0.077175 0.13565 0.05145 0.037425 0.116175 0.056125 0.194125 0.056125 0.084175 0 0.15435 -0.0187 0.210475 -0.056125 0.056125 -0.037425 0.0842 -0.082625 0.0842 -0.13565v-1.146c0 -0.15905 -0.033525 -0.307175 -0.100575 -0.444375 -0.067075 -0.1372 -0.17385 -0.24945 -0.3204 -0.336775 -0.1466 -0.087325 -0.341475 -0.130975 -0.5847 -0.130975 -0.109175 0 -0.221425 0.014025 -0.336775 0.0421 -0.1154 0.02805 -0.21285 0.067825 -0.29235 0.119275 -0.079525 0.05145 -0.119275 0.109925 -0.119275 0.1754 0 0.068625 0.0179 0.13565 0.053775 0.20115 0.03585 0.065475 0.08655 0.098225 0.152025 0.098225 0.040525 0 0.077925 -0.01245 0.112275 -0.037425 0.034325 -0.02495 0.0834 -0.049125 0.147325 -0.0725 0.0639 -0.0234 0.155125 -0.035075 0.27365 -0.035075 0.106 0 0.18785 0.021825 0.245575 0.065475 0.0577 0.04365 0.099775 0.098225 0.126275 0.163725 0.0262 0.063825 0.0397 0.132125 0.039775 0.201125v0.0608h-0.191775c-0.215175 0 -0.404625 0.020275 -0.568325 0.060825 -0.163725 0.04055 -0.2916 0.1107 -0.383575 0.210475 -0.092 0.099775 -0.137975 0.23855 -0.137975 0.4163 0 0.21205 0.06 0.36875 0.180075 0.4701 0.120025 0.10135 0.2627 0.152025 0.428 0.152025Zm0.243225 -0.44905c-0.0686 0 -0.127075 -0.02025 -0.1754 -0.0608 -0.04835 -0.04055 -0.0725 -0.1045 -0.0725 -0.191775 0 -0.08735 0.028825 -0.152025 0.086525 -0.194125 0.057725 -0.0421 0.133325 -0.069425 0.226875 -0.081875 0.09355 -0.012425 0.191775 -0.0187 0.294675 -0.0187h0.070175v0.098225c0 0.07485 -0.02265 0.14655 -0.067825 0.215175 -0.045225 0.068625 -0.100575 0.12475 -0.16605 0.1684 -0.0655 0.043625 -0.130975 0.065475 -0.196475 0.065475Zm3.17505 0.40695c0.077975 0 0.148125 -0.016375 0.2105 -0.049125 0.06235 -0.032725 0.09355 -0.0803 0.09355 -0.14265v-1.108575c0 -0.174675 -0.036625 -0.333675 -0.109925 -0.477125 -0.0733 -0.14345 -0.170725 -0.258025 -0.29235 -0.3438 -0.121625 -0.08575 -0.255725 -0.128625 -0.402275 -0.128625 -0.1559 0 -0.287675 0.036625 -0.39525 0.109925 -0.107575 0.073275 -0.184775 0.15515 -0.23155 0.245575v-0.14035c0 -0.056125 -0.025725 -0.10135 -0.077175 -0.135625 -0.05145 -0.03435 -0.1146 -0.051475 -0.189425 -0.051475 -0.08735 0 -0.15905 0.017175 -0.215175 0.051475 -0.056125 0.034325 -0.0842 0.0795 -0.0842 0.135625v1.842975c0 0.046775 0.028075 0.090425 0.0842 0.130975 0.056125 0.04055 0.127875 0.0608 0.215175 0.0608 0.084175 0 0.1559 -0.02025 0.21515 -0.0608 0.059225 -0.04055 0.088875 -0.0842 0.088875 -0.130975v-1.108575c0 -0.08735 0.018725 -0.162175 0.056125 -0.224525 0.037425 -0.062375 0.08575 -0.110725 0.145025 -0.145025 0.059225 -0.034325 0.12005 -0.05145 0.182425 -0.05145 0.074825 0 0.14345 0.02105 0.2058 0.06315 0.06235 0.0421 0.111475 0.0943 0.14735 0.1567 0.0355 0.061075 0.054075 0.1305 0.053775 0.20115v1.108575c0 0.06235 0.03275 0.109925 0.09825 0.14265 0.065475 0.03275 0.1325 0.049125 0.201125 0.049125Zm1.78925 0c0.087325 0 0.152 -0.026525 0.1941 -0.079525s0.06315 -0.11225 0.06315 -0.17775c0 -0.06235 -0.02105 -0.12005 -0.06315 -0.17305 -0.0421 -0.053 -0.106775 -0.079525 -0.1941 -0.079525h-0.182425c-0.0967 0 -0.164475 -0.018725 -0.203475 -0.056125 -0.038975 -0.037425 -0.058475 -0.101375 -0.058475 -0.1918v-1.024375h0.55195c0.0499 0 0.088075 -0.022625 0.1146 -0.067825 0.026525 -0.045225 0.03975 -0.0959 0.03975 -0.152025 0 -0.056125 -0.013225 -0.106775 -0.03975 -0.152025 -0.026525 -0.045225 -0.0647 -0.067825 -0.1146 -0.067825h-0.55195v-0.804525c0 -0.056125 -0.03195 -0.101375 -0.0959 -0.13565 -0.063925 -0.034325 -0.1333 -0.05145 -0.20815 -0.05145 -0.0686 0 -0.13565 0.01715 -0.201125 0.05145 -0.0655 0.034325 -0.098225 0.079525 -0.098225 0.13565v2.2686c0 0.26195 0.07405 0.453725 0.222175 0.57535 0.148125 0.121625 0.3625 0.182425 0.643175 0.182425h0.182425Zm0.870325 -2.71765c0.090425 0 0.1676 -0.030425 0.231525 -0.091225 0.06395 -0.0608 0.0959 -0.128625 0.0959 -0.203475 0 -0.0811 -0.03195 -0.150475 -0.0959 -0.20815 -0.063925 -0.057725 -0.141075 -0.086525 -0.231525 -0.086525 -0.090425 0 -0.1684 0.02885 -0.233875 0.086525 -0.0655 0.057725 -0.09825 0.1271 -0.09825 0.20815 0 0.07485 0.03275 0.142675 0.09825 0.203475 0.065475 0.0608 0.14345 0.091225 0.233875 0.091225Zm0 2.71765c0.0842 0 0.1559 -0.02025 0.21515 -0.0608 0.059225 -0.04055 0.088875 -0.0842 0.088875 -0.130975v-1.842975c0 -0.056125 -0.0296 -0.10135 -0.088875 -0.135625 -0.059225 -0.03435 -0.13095 -0.051475 -0.21515 -0.051475 -0.087325 0 -0.15905 0.017175 -0.215175 0.051475 -0.056125 0.034325 -0.0842 0.0795 -0.0842 0.135625v1.842975c0 0.046775 0.028075 0.090425 0.0842 0.130975 0.056125 0.04055 0.127875 0.0608 0.215175 0.0608Zm2.46125 0c0.07795 0 0.1481 -0.016375 0.2105 -0.049125 0.06235 -0.032725 0.09355 -0.0803 0.09355 -0.14265v-1.108575c0 -0.174675 -0.036675 -0.333675 -0.109925 -0.477125 -0.0733 -0.14345 -0.170725 -0.258025 -0.29235 -0.3438 -0.121625 -0.08575 -0.255725 -0.128625 -0.402275 -0.128625 -0.15595 0 -0.287675 0.036625 -0.39525 0.109925 -0.107575 0.073275 -0.18475 0.15515 -0.231525 0.245575v-0.14035c0 -0.056125 -0.02575 -0.10135 -0.0772 -0.135625 -0.05145 -0.03435 -0.1146 -0.051475 -0.189425 -0.051475 -0.087325 0 -0.15905 0.017175 -0.215175 0.051475 -0.056125 0.034325 -0.0842 0.0795 -0.0842 0.135625v1.842975c0 0.046775 0.028075 0.090425 0.0842 0.130975 0.056125 0.04055 0.127875 0.0608 0.215175 0.0608 0.0842 0 0.1559 -0.02025 0.21515 -0.0608 0.059225 -0.04055 0.088875 -0.0842 0.088875 -0.130975v-1.108575c0 -0.08735 0.018725 -0.162175 0.05615 -0.224525 0.0374 -0.062375 0.085725 -0.110725 0.145 -0.145025 0.059225 -0.034325 0.120025 -0.05145 0.182425 -0.05145 0.074825 0 0.143425 0.02105 0.2058 0.06315 0.06235 0.0421 0.111475 0.0943 0.14735 0.1567 0.0355 0.061075 0.054075 0.1305 0.0538 0.20115v1.108575c0 0.06235 0.032725 0.109925 0.098225 0.14265 0.065475 0.03275 0.132525 0.049125 0.201125 0.049125Zm1.7986 0.0421c0.1684 0 0.31415 -0.02105 0.43735 -0.06315 0.123175 -0.0421 0.21825 -0.09355 0.285325 -0.15435 0.06705 -0.060825 0.100575 -0.1177 0.100575 -0.17075 0 -0.031175 -0.00935 -0.067825 -0.028075 -0.109925 -0.0185 -0.0418 -0.045575 -0.07925 -0.0795 -0.1099 -0.034325 -0.0312 -0.07485 -0.046775 -0.121625 -0.046775 -0.043675 0 -0.09045 0.014025 -0.140325 0.042075 -0.0499 0.028075 -0.109175 0.057725 -0.17775 0.088875 -0.068625 0.0312 -0.15435 0.046775 -0.257275 0.046775 -0.16215 0 -0.293925 -0.0413 -0.39525 -0.12395 -0.10135 -0.0826 -0.152025 -0.190975 -0.152025 -0.325075v-0.070175h0.94955c0.071725 0 0.141075 -0.007025 0.20815 -0.02105 0.06705 -0.014025 0.122375 -0.0499 0.16605 -0.107575 0.04365 -0.057725 0.0655 -0.153575 0.0655 -0.287675 0 -0.17465 -0.045225 -0.327425 -0.13565 -0.4584 -0.09045 -0.130975 -0.20815 -0.233875 -0.35315 -0.308725 -0.145025 -0.074825 -0.3048 -0.11225 -0.47945 -0.11225 -0.19025 0 -0.362525 0.042875 -0.516875 0.128625 -0.154375 0.08575 -0.277575 0.19955 -0.369525 0.341475 -0.092 0.14185 -0.138 0.297025 -0.138 0.4654v0.3976c0 0.190225 0.048325 0.357825 0.145 0.502825 0.09665 0.145025 0.229975 0.257275 0.39995 0.3368 0.169925 0.0795 0.3656 0.119275 0.587025 0.119275Zm0.15435 -1.351825h-0.682925v-0.130975c0 -0.074825 0.019475 -0.13955 0.058475 -0.1941 0.038975 -0.0546 0.089625 -0.0967 0.152025 -0.1263 0.06235 -0.029625 0.129375 -0.04445 0.201125 -0.04445 0.07485 0 0.143425 0.0156 0.205825 0.0468 0.06235 0.031175 0.11225 0.074825 0.149675 0.13095 0.037425 0.05615 0.056125 0.120075 0.056125 0.1918 0 0.0499 -0.010125 0.0834 -0.0304 0.10055 -0.020275 0.017175 -0.056925 0.025725 -0.109925 0.025725Z" stroke-width="0.25"></path>
</svg>